# xmcd
#
# Track frame offsets:
#	150
#	9281
#	24366
#	37501
#	48868
#	60651
#	74514
#	94071
#	106218
#	117454
#	130170
#	142420
#	153267
#	162008
#	174467
#	185444
#	196317
#	211194
#
# Disc length: 2958 seconds
#
# Revision: 3
# Processed by: cddbd v1.5.2PL0 Copyright (c) Steve Scherf et al.
# Submitted via: EasyCDDAExtractor 12.0.1.1
#
DISCID=e90b8c12
DTITLE=Gold Star Ballroom - Foxtrot
DYEAR=2003
DGENRE=Dance
TTITLE0=SF 26 - As Time Goes By
TTITLE1=SF 28 - Cry Me A River
TTITLE2=SF 29 - I Got Rhythm
TTITLE3=SF 29 - I'll Be Home For Christmas
TTITLE4=SF 29 - I Want To Be Loved By You
TTITLE5=SF 28 - Layla
TTITLE6=SF 28 - Night and Day
TTITLE7=SF 28 - Pennies From Heaven
TTITLE8=SF 28 - petit Fleur
TTITLE9=SF 29 - Theme of Pink Panther
TTITLE10=SF 28 - Unforgettable
TTITLE11=SF 29 - Love and Marriage
TTITLE12=SF 29 - The More I See You
TTITLE13=SF 29 - Raindrops Keep Fallin' On My Head
TTITLE14=SF 29 - Let There Be Love
TTITLE15=SF 29 - Some Day You'll Be Old
TTITLE16=SF 28 - Tendertrap
TTITLE17=SF 29 - Making Whoopie
EXTD=For social and competitino dancing - slow fox, 28-29 BPM
EXTT0=
EXTT1=
EXTT2=
EXTT3=
EXTT4=
EXTT5=
EXTT6=
EXTT7=
EXTT8=
EXTT9=
EXTT10=
EXTT11=
EXTT12=
EXTT13=
EXTT14=
EXTT15=
EXTT16=
EXTT17=
PLAYORDER=
